<?xml version="1.0" standalone="no"?>
<!DOCTYPE svg PUBLIC "-//W3C//DTD SVG 20010904//EN"
 "http://www.w3.org/TR/2001/REC-SVG-20010904/DTD/svg10.dtd">
<svg version="1.0" xmlns="http://www.w3.org/2000/svg"
 width="1024.000000pt" height="1024.000000pt" viewBox="0 0 1024.000000 1024.000000"
 preserveAspectRatio="xMidYMid meet">
<metadata>
Created by potrace 1.11, written by Peter Selinger 2001-2013
</metadata>
<g transform="translate(0.000000,1024.000000) scale(0.100000,-0.100000)"
fill="#000000" stroke="none">
<path d="M4728 10235 c-2 -1 -54 -6 -117 -10 -63 -4 -123 -8 -134 -11 -11 -2
-45 -6 -76 -10 -104 -11 -119 -13 -178 -23 -32 -6 -76 -13 -98 -17 -153 -23
-490 -109 -690 -176 -125 -42 -289 -103 -316 -117 -8 -5 -51 -24 -95 -42 -178
-74 -487 -241 -711 -385 -367 -237 -780 -599 -1063 -934 -30 -35 -59 -69 -65
-75 -5 -7 -23 -29 -40 -50 -16 -21 -42 -52 -56 -69 -104 -126 -313 -442 -428
-649 -71 -127 -221 -427 -221 -442 0 -2 -11 -28 -24 -57 -23 -51 -46 -109
-100 -250 -14 -37 -42 -118 -61 -180 -106 -334 -147 -516 -210 -923 -2 -16 -7
-64 -11 -105 -3 -41 -8 -77 -10 -81 -1 -3 -6 -59 -11 -125 -14 -220 -7 -776
12 -895 2 -13 6 -55 10 -94 3 -38 8 -77 10 -85 2 -8 6 -37 10 -65 3 -27 8 -59
10 -70 3 -11 7 -38 10 -60 3 -22 7 -47 10 -55 2 -8 6 -32 9 -52 30 -200 180
-722 266 -923 5 -11 25 -60 45 -110 57 -142 236 -497 322 -640 122 -200 304
-464 402 -581 14 -17 42 -51 61 -75 19 -24 44 -53 55 -65 11 -13 47 -53 80
-90 89 -100 277 -288 380 -379 50 -44 92 -83 95 -86 16 -18 222 -178 315 -246
522 -377 1077 -636 1690 -788 99 -24 194 -47 210 -50 172 -31 315 -53 391 -60
32 -3 68 -7 79 -10 124 -25 908 -26 987 -1 7 3 42 7 78 11 407 39 976 191
1370 368 89 39 390 187 390 191 0 2 -28 -5 -62 -15 -95 -30 -300 -83 -358 -94
-14 -2 -68 -13 -120 -24 -52 -11 -122 -23 -155 -26 -33 -4 -63 -9 -66 -11 -4
-2 -37 -6 -75 -10 -38 -3 -82 -8 -99 -10 -166 -23 -640 -23 -830 0 -22 3 -80
10 -130 16 -49 6 -103 13 -120 16 -16 3 -43 7 -60 10 -16 3 -43 7 -60 10 -16
3 -37 7 -45 9 -8 2 -28 7 -45 10 -82 14 -233 52 -350 87 -487 146 -902 350
-1329 652 -109 77 -281 217 -399 326 -480 439 -881 1006 -1124 1590 -8 19 -19
44 -24 55 -5 11 -18 45 -29 75 -11 30 -25 64 -30 75 -12 27 -62 178 -98 300
-71 235 -135 551 -157 775 -4 36 -9 79 -11 95 -25 182 -24 789 1 939 2 11 6
41 9 66 7 65 25 186 36 250 5 30 12 71 15 90 17 99 103 435 141 549 52 156 80
231 149 394 278 663 735 1275 1296 1738 655 539 1466 886 2284 975 28 3 66 7
85 9 188 23 634 23 825 0 144 -17 232 -28 245 -30 8 -1 35 -6 60 -10 312 -51
731 -172 966 -280 30 -14 57 -25 60 -25 12 0 267 -126 359 -178 138 -77 293
-174 400 -250 107 -77 99 -64 -54 87 -99 96 -164 155 -351 315 -64 54 -281
213 -398 290 -233 153 -551 324 -762 410 -36 15 -74 31 -85 36 -118 55 -461
167 -655 215 -217 53 -524 106 -695 120 -44 4 -91 9 -105 12 -27 5 -626 13
-632 8z"/>
<path d="M5847 9254 c-1 -1 -38 -5 -82 -8 -44 -4 -105 -9 -135 -12 -59 -5
-305 -42 -330 -49 -8 -2 -32 -6 -54 -10 -21 -3 -42 -7 -46 -10 -3 -2 -22 -7
-41 -10 -99 -17 -375 -100 -544 -163 -420 -157 -828 -397 -1200 -705 -107 -89
-315 -286 -315 -298 0 -5 35 16 78 45 181 123 418 255 597 330 50 21 104 44
120 52 139 61 423 143 700 200 37 8 240 34 310 40 39 3 88 8 110 10 58 5 411
4 470 -1 187 -16 261 -24 285 -30 8 -2 35 -7 60 -10 244 -34 576 -129 845
-242 367 -155 715 -374 1020 -643 93 -82 307 -303 390 -403 494 -594 802
-1332 870 -2082 3 -33 8 -80 11 -105 6 -60 6 -472 0 -535 -3 -27 -8 -81 -11
-120 -5 -62 -37 -287 -49 -340 -2 -11 -11 -54 -20 -95 -122 -586 -408 -1167
-807 -1648 -105 -125 -357 -375 -482 -477 -377 -307 -788 -532 -1229 -673
-182 -58 -440 -119 -578 -136 -19 -2 -51 -7 -70 -10 -203 -33 -659 -39 -855
-11 -16 3 -52 7 -80 10 -152 17 -401 69 -559 116 -54 16 -101 29 -105 29 -20
-1 358 -178 459 -215 245 -89 383 -131 570 -173 74 -17 151 -34 170 -37 19 -3
49 -8 65 -11 33 -6 44 -8 124 -19 30 -3 62 -8 72 -10 10 -2 58 -7 106 -10 48
-4 99 -8 113 -11 40 -7 426 -7 525 0 135 10 371 38 469 57 28 5 65 12 81 15
17 2 38 7 47 10 9 3 27 7 40 9 116 23 451 121 543 160 17 7 77 32 135 55 375
152 755 383 1087 662 104 87 92 76 239 219 283 276 522 587 732 956 47 84 186
370 207 428 10 28 21 55 25 60 8 12 70 182 105 290 24 75 98 349 109 405 48
248 60 335 80 550 13 139 15 671 3 730 -3 14 -8 57 -12 95 -3 39 -10 95 -15
125 -5 30 -12 78 -15 105 -4 28 -13 79 -21 115 -8 36 -17 81 -20 100 -3 19
-19 87 -36 150 -16 63 -31 123 -33 133 -9 44 -111 332 -157 445 -56 138 -150
332 -229 473 -45 82 -198 325 -222 354 -4 6 -29 39 -55 75 -44 62 -154 202
-177 226 -5 6 -39 44 -75 85 -444 504 -1042 912 -1680 1147 -194 71 -483 151
-640 177 -19 3 -57 10 -85 15 -27 5 -70 12 -95 15 -25 3 -56 8 -70 10 -14 2
-54 7 -90 10 -36 3 -83 8 -105 11 -38 6 -542 13 -548 8z"/>
<path d="M4489 7133 c0 -10 -2 -333 -2 -718 l-2 -700 -690 -2 c-379 -1 -702
-2 -717 -2 l-28 -1 0 -700 0 -700 719 0 718 0 1 -702 c0 -387 1 -710 1 -718 1
-13 85 -15 699 -15 l697 0 3 718 2 717 714 0 c562 0 715 3 718 13 4 10 3 1373
-1 1387 0 3 -323 4 -716 4 l-715 -2 0 719 0 719 -700 0 c-660 0 -700 -1 -701
-17z"/>
</g>
</svg>
